<svg xmlns="http://www.w3.org/2000/svg" xmlns:xlink="http://www.w3.org/1999/xlink" xmlns:inkscape="http://www.inkscape.org/namespaces/inkscape" version="1.1" width="1008" height="612" viewBox="0 0 1008 612">
<defs>
<clipPath id="clip_1">

</clipPath>
<clipPath id="clip_2">
<path transform="matrix(1,0,0,-1,0,612)" d="M-1.17038 611.344H395.68V1223.34H-1.17038Z"/>
</clipPath>
<path id="font_3_2" d="M.2619934 .5838623H.5049896C.58499148 .5838623 .6049957 .55181887 .6049957 .5067749 .6049957 .45370484 .57699587 .4296875 .5319977 .4296875H.2619934V.5838623M.067993167 0H.57699587C.7919922 0 .83699038 .12098694 .83699038 .21585083 .83699038 .29170228 .7939911 .37568666 .70999148 .38868714V.39068605C.7769928 .41168214 .8049927 .47773744 .8049927 .5337982 .8049927 .66586306 .70799258 .7138672 .60398867 .7138672H.067993167V0M.2619934 .30567933H.5279999C.5970001 .30567933 .6309967 .2767334 .6309967 .21983338 .6309967 .17492676 .60798647 .13598633 .5479889 .13598633H.2619934V.30567933Z"/>
<path id="font_3_7" d="M.067993167 0H.2619934V.26171876H.5029907C.5629883 .26171876 .60598757 .23674011 .60598757 .13684082 .60598757 .062927249 .6069946 .030960083 .625 0H.83699038C.8019867 .034957887 .7999878 .11985779 .7999878 .15483094 .7999878 .2247467 .7859955 .3327179 .70199587 .34571839V.3477173C.7829895 .37670899 .81799319 .43173219 .81799319 .5198059 .81799319 .592865 .7839966 .7138672 .58699038 .7138672H.067993167V0M.2619934 .5778656H.5089874C.55599978 .5778656 .6119995 .559845 .6119995 .4887848 .6119995 .42173768 .56199648 .39770509 .5189972 .39770509H.2619934V.5778656Z"/>
<path id="font_3_1" d="M.6389923 0H.84799197L.5339966 .7138672H.2999878L-.014007568 0H.19499207L.25299073 .14733887H.58099368L.6389923 0M.5289917 .27734376H.30499269L.4169922 .5600281 .5289917 .27734376Z"/>
<path id="font_3_5" d="M.66999819 .21582031H.66799929L.29299928 .7138672H.067993167V0H.2559967V.49783326H.2579956L.6469879 0H.8580017V.7138672H.66999819V.21582031Z"/>
<path id="font_3_3" d="M.067993167 0H.5299988C.7539978 0 .8639984 .14199829 .8639984 .3569336 .8639984 .5718689 .7579956 .7138672 .5130005 .7138672H.067993167V0M.2619934 .5778656H.45999146C.60798647 .5778656 .6639862 .49588014 .6639862 .36392213 .6639862 .2119751 .6069946 .13598633 .47799684 .13598633H.2619934V.5778656Z"/>
<path id="font_3_6" d="M.23399353 .35742188C.23399353 .46839906 .29599 .5983734 .47200013 .5983734 .647995 .5983734 .70999148 .46839906 .70999148 .35742188 .70999148 .24642945 .647995 .11645508 .47200013 .11645508 .29599 .11645508 .23399353 .24642945 .23399353 .35742188M.027999878 .35742188C.027999878 .20845032 .08799744-.01953125 .47200013-.01953125 .85598757-.01953125 .91600039 .20845032 .91600039 .35742188 .91600039 .50639346 .85598757 .734375 .47200013 .734375 .08799744 .734375 .027999878 .50639346 .027999878 .35742188Z"/>
<path id="font_3_4" d="M.2619934 .4069214V.7138672H.067993167V0H.2619934V.21194458L.375 .30892945 .6179962 0H.8799896L.5269928 .4269104 .8549957 .7138672H.59399417L.2619934 .4069214Z"/>
<path id="font_4_39" d="M.10499573 .71972659V0H.17298889V.71972659H.10499573Z"/>
<path id="font_4_65" d="M.47200013 .43522645C.43499757 .49621583 .3619995 .53222659 .2869873 .53222659 .14199829 .53222659 .055999757 .41723634 .055999757 .25726319 .055999757 .08531189 .13899231-.013671875 .2899933-.013671875 .3619995-.013671875 .43699647 .027313233 .46998597 .091308597H.47200013V0H.5319977V.71972659H.47200013V.43522645M.47200013 .26112367C.47200013 .1282959 .4019928 .04031372 .29699708 .04031372 .19999695 .04031372 .11999512 .103302 .11999512 .25627137 .11999512 .39923097 .19299317 .4782257 .29599 .4782257 .40098573 .4782257 .47200013 .38424684 .47200013 .261261V.26112367Z"/>
<path id="font_4_66" d="M.2829895 .53222659C.14299011 .53222659 .04499817 .4151764 .04499817 .25610353 .04499817 .089263919 .12998963-.013671875 .2829895-.013671875 .397995-.013671875 .46998597 .04031372 .5069885 .15919495H.43998719C.4229889 .08627319 .36299134 .04031372 .2829895 .04031372 .1789856 .04031372 .10899353 .11824036 .10899353 .24511719H.5109863C.5109863 .43019105 .42599488 .53222659 .2829895 .53222659M.10899353 .29510499C.125 .4111786 .18998719 .4782257 .28199769 .4782257 .3829956 .4782257 .44599916 .4061737 .44699098 .29510499H.10899353Z"/>
<path id="font_4_75" d="M.48298646 .36116029C.48298646 .4762268 .40098573 .53222659 .29899598 .53222659 .23999024 .53222659 .19198609 .5112152 .13198853 .44621278V.5175781H.07199097V0H.13198853V.29574586C.13198853 .41319276 .20199585 .4782257 .2899933 .4782257 .38598634 .4782257 .4229889 .42819215 .4229889 .341156V0H.48298646V.36116029Z"/>
<path id="font_4_81" d="M.09298706 .5175781H.019989014V.46757508H.09298706V.086242679C.09298706 .022323609 .11898804-.013671875 .18499756-.013671875 .21598816-.013671875 .23899842-.0046844484 .2539978-.0016784668V.047302247C.23699951 .043319704 .22399903 .04031372 .20799256 .04031372 .1769867 .04031372 .15299988 .0413208 .15299988 .09921265V.46757508H.25V.5175781H.15299988V.6611328H.09298706V.5175781Z"/>
<path id="font_4_70" d="M.07798767 .71972659V.63072207H.14399719V.71972659H.07798767M.08099365 0H.14099121V.5175781H.08099365V0Z"/>
<path id="font_4_62" d="M.2829895 .53222659C.15499878 .53222659 .07798767 .47021485 .069992069 .36125184H.1309967C.13999939 .44023133 .18499756 .4782257 .28199769 .4782257 .36698915 .4782257 .41099549 .44122315 .41099549 .37324525 .41099549 .31425477 .3880005 .31225587 .30299378 .30125428L.24699402 .29426576C.09799194 .27526856 .04598999 .22128296 .04598999 .13529969 .04598999 .043319704 .11898804-.013671875 .21899414-.013671875 .2939911-.013671875 .36099244 .015319824 .4119873 .0723114 .41299439 .014175415 .43399049-.0078125 .48399354-.0078125 .5019989-.0078125 .5209961-.0018157959 .5339966 .0021820069V.049179079C.5179901 .042175294 .5059967 .04118347 .49699403 .04118347 .47698976 .04118347 .47099305 .057174684 .47099305 .08518982V.37521363C.47099305 .47221376 .40899659 .53222659 .2829895 .53222659M.10998535 .13319397C.10998535 .20019531 .15899658 .23519898 .25498963 .24319458 .35299684 .25120545 .3809967 .25920106 .41099549 .27220155V.18818665C.41099549 .09831238 .33099366 .04031372 .22299195 .04031372 .15499878 .04031372 .10998535 .077316287 .10998535 .13330078V.13319397Z"/>
<path id="font_4_1" d=""/>
<path id="font_4_33" d="M.3829956 .7392578C.16699219 .7392578 .04798889 .6072693 .04798889 .3603363 .04798889 .12741089 .1579895-.018554688 .35798646-.018554688 .5249939-.018554688 .6319885 .06942749 .66999819 .23738098H.598999C.5669861 .10942078 .48399354 .03944397 .37098695 .03944397 .20399475 .03944397 .115997318 .15940857 .115997318 .3623352 .115997318 .5532837 .20799256 .6812439 .3659973 .6812439 .49798585 .6812439 .5669861 .6242676 .59199526 .5112915H.6619873C.6389923 .6582489 .5349884 .7392578 .3829956 .7392578Z"/>
<path id="font_4_76" d="M.27799989 .53222659C.1269989 .53222659 .037994386 .42022706 .037994386 .25926209 .037994386 .08531189 .14199829-.013671875 .2789917-.013671875 .42199708-.013671875 .5179901 .0953064 .5179901 .25926209 .5179901 .42422486 .42900086 .53222659 .27799989 .53222659M.101989749 .25926209C.101989749 .39224244 .16899109 .4782257 .2769928 .4782257 .3959961 .4782257 .45399476 .39323426 .45399476 .25726319 .45399476 .1322937 .3919983 .04031372 .27799989 .04031372 .16899109 .04031372 .101989749 .123306278 .101989749 .25926209Z"/>
<path id="font_4_79" d="M.30599977 .53222659H.3039856C.21199036 .53222659 .16799927 .49821473 .13699341 .42118836H.1349945V.5175781H.07499695V0H.1349945V.2567749C.1349945 .39317323 .18699646 .46722413 .29899598 .46722413H.30599977V.53222659Z"/>
<path id="font_4_77" d="M.32099916 .53222659C.25 .53222659 .17599488 .49221803 .14099121 .42723084H.13899231V.5175781H.07899475V-.20410156H.13899231V.08325195C.17799378 .020324707 .25-.013671875 .32499696-.013671875 .46899415-.013671875 .5549927 .10021973 .5549927 .25997926 .5549927 .43222047 .47200013 .53222659 .32099916 .53222659M.13899231 .25726319C.13899231 .39024354 .20899964 .4782257 .31298829 .4782257 .41099549 .4782257 .4909973 .41523744 .4909973 .261261 .4909973 .12730408 .4249878 .04031372 .31399537 .04031372 .21099854 .04031372 .13899231 .1322937 .13899231 .25726319Z"/>
<path id="font_4_83" d="M.016998291 .5175781 .21499634 0H.28199769L.48298646 .5175781H.41799928L.25 .07392883 .08198547 .5175781H.016998291Z"/>
<clipPath id="clip_5">

</clipPath>
</defs>
<g>
<g clip-path="url(#clip_1)">
<g opacity=".100006">
<g clip-path="url(#clip_2)">

</g>
</g>
</g>































<g clip-path="url(#clip_5)">
<path transform="matrix(1,0,0,-1,209.003,296.239)" d="M0 0H49.12L44.795 12.821C43.476 11.528 42.061 9.711 41.22 9.754 27.027 9.151 12.52 10.798-1.612 9.956-15.844 9.108-32.767-.386-31.054-16.789-29.987-26.999-19.822-30.292-11.048-31.234L21.371-30.925 23.821-18.303-19.513-18.569ZM139.744 32.419 98.112-53.42 67.325-53.708 54.501-9.672 44.311-53.403-16.061-53.413C-34.754-52.51-53.953-44.318-56.844-23.767-61.209 7.271-30.792 30.661-2.32 32.43 11.463 33.287 27.414 32.627 41.423 32.705 50.36 32.755 55.575 32.84 64.486 32.406L85.587-32.506 115.443 32.419Z" fill="#1d1d1b"/>
<path transform="matrix(1,0,0,-1,822.013,274.828)" d="M0 0V-15.05-16.207H32.856V-27.012H0V-28.17-54.411C0-57.904 5.912-61.793 9.12-61.811 13.05-61.834 18.984-58.118 18.984-53.639V-36.274H32.856V-58.27C32.778-59.963 29.994-64.851 29.523-65.551 21.824-76.971-3.313-77.598-11.694-67.326-12.413-66.445-15.167-62.02-15.333-59.813V0Z" fill="#1d1d1b"/>
<path transform="matrix(1,0,0,-1,415.873,306.871)" d="M0 0H32.222L32.431-42.411H21.454L21.245-32.462C15.226-39.985 5.754-43.077-5.312-43.077-28.327-43.077-42.668-31.535-42.668-4.225-42.668 18.446-29.123 34.626-5.312 34.626 12.127 34.626 28.768 28.649 31.867 8.45H12.747C10.091 17.931 2.92 20.61-3.364 20.61-18.944 20.61-24.431 7.214-24.431-4.225-24.431-15.665-18.944-29.061-3.364-29.061 6.107-29.061 13.189-24.939 15.314-12.779H0Z" fill="#1d1d1b"/>
<path transform="matrix(1,0,0,-1,454.594,274.687)" d="M0 0H15.259L15.402-74.595H.142Z" fill="#1d1d1b"/>
<path transform="matrix(1,0,0,-1,504.947,336.648)" d="M0 0C9.449 0 14.912 6.081 14.912 16.901 14.912 27.722 9.449 33.802 0 33.802-9.451 33.802-14.913 27.722-14.913 16.901-14.913 6.081-9.451 0 0 0M0 46.58C18.381 46.58 30.692 37.821 30.692 16.901 30.692-4.019 18.381-12.778 0-12.778-18.382-12.778-30.693-4.019-30.693 16.901-30.693 37.821-18.382 46.58 0 46.58" fill="#1d1d1b"/>
<path transform="matrix(1,0,0,-1,568.827,336.42)" d="M0 0C7.717 0 14.392 5.565 14.392 15.973 14.392 26.382 7.717 31.946 0 31.946-7.629 31.946-14.306 26.382-14.306 15.973-14.306 5.565-7.629 0 0 0M-29.065 61.65H-13.806L-13.785 37.099H-13.612C-10.577 42.045-4.421 45.343 4.25 45.343 18.902 45.343 30.173 33.595 30.173 15.664 30.173-3.71 18.294-13.397 3.208-13.397-3.208-13.397-8.323-11.852-14.133-4.431H-14.306L-14.382-12.751H-29.121Z" fill="#1d1d1b"/>
<path transform="matrix(1,0,0,-1,644.344,320.989)" d="M0 0C-2.86-1.649-5.982-2.061-9.016-2.37L-17.86-3.298C-23.322-3.813-25.923-5.565-25.923-10.511-25.923-15.458-22.109-18.24-16.299-18.24-8.67-18.24 0-13.912 0-4.534ZM-39.276 11.439C-37.455 28.443-24.362 30.4-11.792 30.4 10.058 30.4 14.74 21.95 14.74 11.645V-15.767C14.74-20.611 15.428-25.51 16.468-28.292H1.209C.602-26.334 .261-22.981 .175-21.023-5.028-27.207-14.652-28.958-21.589-28.958-33.727-28.958-42.224-23.909-42.224-11.027-42.224 2.577-32.339 5.152-22.976 5.977L-6.762 7.317C-1.993 7.729-.519 8.657-.519 13.088-.519 17.519-3.554 19.683-12.484 19.683-18.988 19.683-22.456 19.168-24.537 11.439Z" fill="#1d1d1b"/>
<path transform="matrix(1,0,0,-1,665.45,274.853)" d="M0 0H15.259L15.121-74.317H-.139Z" fill="#1d1d1b"/>
<path transform="matrix(1,0,0,-1,682.711,293.538)" d="M0 0H17.341L30-38.749 42.658 0H59.997L38.487-55.632H21.148Z" fill="#1d1d1b"/>
<path transform="matrix(1,0,0,-1,785.362,314.264)" d="M0 0V.206C0 3.195-3.294 12.47-14.392 12.47-26.532 12.47-28.96 1.443-28.96 .206V0ZM14.913-17.004C10.491-30.092-.087-35.554-14.046-35.554-32.427-35.554-44.74-26.794-44.74-5.874-44.74 15.045-32.427 23.805-14.046 23.805 6.068 23.805 15.78 11.645 15.78-9.069V-10.718H-28.96V-10.924C-28.96-16.18-24.451-24.217-14.046-24.217-7.804-24.217-3.556-21.848-1.388-17.004Z" fill="#1d1d1b"/>
</g>
</g>
</svg>
